<mxfile host="app.diagrams.net" modified="2022-04-28T16:22:10.674Z" agent="5.0 (Windows NT 10.0; Win64; x64) AppleWebKit/537.36 (KHTML, like Gecko) Chrome/101.0.4951.41 Safari/537.36" etag="Zetp0-jwnBWWPVcdPsFG" version="15.3.1" type="github">
  <diagram id="bx06C6-bFa9dFDq-Ht7o" name="Page-1">
    <mxGraphModel dx="1185" dy="628" grid="1" gridSize="10" guides="1" tooltips="1" connect="1" arrows="1" fold="1" page="1" pageScale="1" pageWidth="850" pageHeight="1100" math="0" shadow="0">
      <root>
        <mxCell id="0" />
        <mxCell id="1" parent="0" />
        <mxCell id="HRTqofCVKguX4mAeaeQR-3" value="" style="rounded=0;whiteSpace=wrap;html=1;" vertex="1" parent="1">
          <mxGeometry x="10" y="50" width="830" height="410" as="geometry" />
        </mxCell>
        <mxCell id="HRTqofCVKguX4mAeaeQR-7" value="&lt;h1&gt;&lt;font color=&quot;#ff0000&quot;&gt;&lt;b&gt;APP&lt;/b&gt;&lt;/font&gt;&lt;/h1&gt;" style="text;html=1;align=center;verticalAlign=middle;resizable=0;points=[];autosize=1;strokeColor=none;fillColor=none;" vertex="1" parent="1">
          <mxGeometry x="10" y="45" width="60" height="50" as="geometry" />
        </mxCell>
        <mxCell id="HRTqofCVKguX4mAeaeQR-23" style="edgeStyle=orthogonalEdgeStyle;rounded=0;orthogonalLoop=1;jettySize=auto;html=1;exitX=1;exitY=0.5;exitDx=0;exitDy=0;entryX=1;entryY=0;entryDx=0;entryDy=52.5;entryPerimeter=0;" edge="1" parent="1" source="HRTqofCVKguX4mAeaeQR-8" target="HRTqofCVKguX4mAeaeQR-12">
          <mxGeometry relative="1" as="geometry" />
        </mxCell>
        <mxCell id="HRTqofCVKguX4mAeaeQR-8" value="" style="rounded=1;whiteSpace=wrap;html=1;" vertex="1" parent="1">
          <mxGeometry x="50" y="110" width="430" height="310" as="geometry" />
        </mxCell>
        <mxCell id="HRTqofCVKguX4mAeaeQR-9" value="&lt;h2&gt;&lt;font color=&quot;#0000cc&quot;&gt;AWS&lt;/font&gt;&lt;/h2&gt;" style="text;html=1;align=center;verticalAlign=middle;resizable=0;points=[];autosize=1;strokeColor=none;fillColor=none;" vertex="1" parent="1">
          <mxGeometry x="235" y="75" width="60" height="50" as="geometry" />
        </mxCell>
        <mxCell id="HRTqofCVKguX4mAeaeQR-10" value="RDS&lt;br&gt;DATABASE" style="ellipse;whiteSpace=wrap;html=1;" vertex="1" parent="1">
          <mxGeometry x="60" y="215" width="90" height="80" as="geometry" />
        </mxCell>
        <mxCell id="HRTqofCVKguX4mAeaeQR-11" value="Elasticbeanstalk&lt;br&gt;API" style="rounded=1;whiteSpace=wrap;html=1;" vertex="1" parent="1">
          <mxGeometry x="205" y="225" width="120" height="60" as="geometry" />
        </mxCell>
        <mxCell id="HRTqofCVKguX4mAeaeQR-12" value="S3 &lt;br&gt;Bucket" style="shape=cylinder3;whiteSpace=wrap;html=1;boundedLbl=1;backgroundOutline=1;size=15;" vertex="1" parent="1">
          <mxGeometry x="400" y="215" width="60" height="80" as="geometry" />
        </mxCell>
        <mxCell id="HRTqofCVKguX4mAeaeQR-13" value="" style="swimlane;fontStyle=0;childLayout=stackLayout;horizontal=1;startSize=30;horizontalStack=0;resizeParent=1;resizeParentMax=0;resizeLast=0;collapsible=1;marginBottom=0;" vertex="1" parent="1">
          <mxGeometry x="610" y="235" width="140" height="60" as="geometry" />
        </mxCell>
        <mxCell id="HRTqofCVKguX4mAeaeQR-14" value="CLIENT APPLICATION" style="text;strokeColor=none;fillColor=none;align=center;verticalAlign=middle;spacingLeft=4;spacingRight=4;overflow=hidden;points=[[0,0.5],[1,0.5]];portConstraint=eastwest;rotatable=0;" vertex="1" parent="HRTqofCVKguX4mAeaeQR-13">
          <mxGeometry y="30" width="140" height="30" as="geometry" />
        </mxCell>
        <mxCell id="HRTqofCVKguX4mAeaeQR-17" value="" style="endArrow=classic;html=1;entryX=0;entryY=0.5;entryDx=0;entryDy=0;exitX=1;exitY=0.5;exitDx=0;exitDy=0;" edge="1" parent="1" source="HRTqofCVKguX4mAeaeQR-10" target="HRTqofCVKguX4mAeaeQR-11">
          <mxGeometry width="50" height="50" relative="1" as="geometry">
            <mxPoint x="400" y="390" as="sourcePoint" />
            <mxPoint x="450" y="340" as="targetPoint" />
          </mxGeometry>
        </mxCell>
        <mxCell id="HRTqofCVKguX4mAeaeQR-18" value="" style="endArrow=classic;html=1;entryX=0.5;entryY=1;entryDx=0;entryDy=0;exitX=0.5;exitY=1;exitDx=0;exitDy=0;" edge="1" parent="1" source="HRTqofCVKguX4mAeaeQR-11" target="HRTqofCVKguX4mAeaeQR-10">
          <mxGeometry width="50" height="50" relative="1" as="geometry">
            <mxPoint x="400" y="390" as="sourcePoint" />
            <mxPoint x="450" y="340" as="targetPoint" />
            <Array as="points">
              <mxPoint x="265" y="330" />
              <mxPoint x="105" y="330" />
            </Array>
          </mxGeometry>
        </mxCell>
        <mxCell id="HRTqofCVKguX4mAeaeQR-19" value="Data" style="text;html=1;align=center;verticalAlign=middle;resizable=0;points=[];autosize=1;strokeColor=none;fillColor=none;" vertex="1" parent="1">
          <mxGeometry x="165" y="310" width="40" height="20" as="geometry" />
        </mxCell>
        <mxCell id="HRTqofCVKguX4mAeaeQR-20" value="SQL&lt;br&gt;Query" style="text;html=1;align=center;verticalAlign=middle;resizable=0;points=[];autosize=1;strokeColor=none;fillColor=none;" vertex="1" parent="1">
          <mxGeometry x="150" y="225" width="50" height="30" as="geometry" />
        </mxCell>
        <mxCell id="HRTqofCVKguX4mAeaeQR-21" value="" style="endArrow=classic;html=1;entryX=0;entryY=0.5;entryDx=0;entryDy=0;" edge="1" parent="1" target="HRTqofCVKguX4mAeaeQR-13">
          <mxGeometry width="50" height="50" relative="1" as="geometry">
            <mxPoint x="459" y="265" as="sourcePoint" />
            <mxPoint x="450" y="330" as="targetPoint" />
            <Array as="points" />
          </mxGeometry>
        </mxCell>
        <mxCell id="HRTqofCVKguX4mAeaeQR-22" value="" style="endArrow=classic;html=1;entryX=0.5;entryY=1;entryDx=0;entryDy=0;exitX=1;exitY=0.5;exitDx=0;exitDy=0;entryPerimeter=0;" edge="1" parent="1" source="HRTqofCVKguX4mAeaeQR-14" target="HRTqofCVKguX4mAeaeQR-12">
          <mxGeometry width="50" height="50" relative="1" as="geometry">
            <mxPoint x="400" y="380" as="sourcePoint" />
            <mxPoint x="450" y="330" as="targetPoint" />
            <Array as="points">
              <mxPoint x="780" y="280" />
              <mxPoint x="780" y="343" />
              <mxPoint x="430" y="343" />
            </Array>
          </mxGeometry>
        </mxCell>
        <mxCell id="HRTqofCVKguX4mAeaeQR-24" value="" style="endArrow=classic;html=1;entryX=0;entryY=0;entryDx=0;entryDy=27.5;entryPerimeter=0;" edge="1" parent="1" target="HRTqofCVKguX4mAeaeQR-12">
          <mxGeometry width="50" height="50" relative="1" as="geometry">
            <mxPoint x="325" y="243" as="sourcePoint" />
            <mxPoint x="450" y="330" as="targetPoint" />
          </mxGeometry>
        </mxCell>
        <mxCell id="HRTqofCVKguX4mAeaeQR-25" value="" style="endArrow=classic;html=1;entryX=1;entryY=0.75;entryDx=0;entryDy=0;" edge="1" parent="1" target="HRTqofCVKguX4mAeaeQR-11">
          <mxGeometry width="50" height="50" relative="1" as="geometry">
            <mxPoint x="400" y="270" as="sourcePoint" />
            <mxPoint x="330" y="280" as="targetPoint" />
          </mxGeometry>
        </mxCell>
        <mxCell id="HRTqofCVKguX4mAeaeQR-26" value="&lt;h6&gt;HTTP Request&lt;/h6&gt;" style="text;html=1;align=center;verticalAlign=middle;resizable=0;points=[];autosize=1;strokeColor=none;fillColor=none;" vertex="1" parent="1">
          <mxGeometry x="325" y="195" width="70" height="60" as="geometry" />
        </mxCell>
        <mxCell id="HRTqofCVKguX4mAeaeQR-27" value="&lt;h6&gt;Response HTML&lt;/h6&gt;" style="text;html=1;align=center;verticalAlign=middle;resizable=0;points=[];autosize=1;strokeColor=none;fillColor=none;" vertex="1" parent="1">
          <mxGeometry x="325" y="260" width="80" height="60" as="geometry" />
        </mxCell>
        <mxCell id="HRTqofCVKguX4mAeaeQR-29" value="USER INPUT" style="text;html=1;align=center;verticalAlign=middle;resizable=0;points=[];autosize=1;strokeColor=none;fillColor=none;" vertex="1" parent="1">
          <mxGeometry x="500" y="240" width="90" height="20" as="geometry" />
        </mxCell>
        <mxCell id="HRTqofCVKguX4mAeaeQR-30" value="Render HTML" style="text;html=1;align=center;verticalAlign=middle;resizable=0;points=[];autosize=1;strokeColor=none;fillColor=none;" vertex="1" parent="1">
          <mxGeometry x="520" y="320" width="90" height="20" as="geometry" />
        </mxCell>
      </root>
    </mxGraphModel>
  </diagram>
</mxfile>
